<svg xmlns="http://www.w3.org/2000/svg" width="24" height="24" viewBox="0 0 24 24"><path fill="currentColor" d="m12.5 12.387l2.788 2.788q.14.136.14.339t-.14.35q-.146.165-.356.155t-.357-.156l-2.833-2.832q-.13-.131-.186-.275t-.056-.296V8.423q0-.212.144-.356T12 7.923t.356.144t.143.356zM12 6q-.213 0-.357-.144T11.5 5.5V4h1v1.5q0 .213-.144.356Q12.212 6 12 6m6 6q0-.213.144-.357t.356-.143H20v1h-1.5q-.213 0-.356-.144Q18 12.212 18 12m-6 6q.213 0 .357.144t.143.356V20h-1v-1.5q0-.213.144-.356Q11.788 18 12 18m-6-6q0 .213-.144.357T5.5 12.5H4v-1h1.5q.213 0 .356.144Q6 11.788 6 12m6.003 9q-1.866 0-3.51-.708q-1.643-.709-2.859-1.924t-1.925-2.856T3 12.003t.708-3.51t1.924-2.859t2.856-1.925T11.997 3t3.51.708t2.859 1.924t1.925 2.856t.709 3.509t-.708 3.51t-1.924 2.859t-2.856 1.925t-3.509.709M20 12q0-3.35-2.325-5.675T12 4T6.325 6.325T4 12t2.325 5.675T12 20t5.675-2.325T20 12m-8 0"/></svg>