<svg xmlns="http://www.w3.org/2000/svg" width="24" height="24" viewBox="0 0 24 24"><path fill="currentColor" d="M10.944 15.433L9.16 13.648q-.073-.073-.162-.11t-.18-.036t-.192.036t-.174.11q-.165.165-.165.357t.165.357l1.933 1.938q.13.13.267.184t.298.053t.298-.053t.267-.184l4.033-4.033q.146-.146.156-.35t-.156-.369t-.36-.165t-.36.165zM6.615 21q-.69 0-1.152-.462T5 19.385V4.615q0-.69.463-1.152T6.615 3h7.214q.323 0 .628.13t.522.349L18.52 7.02q.217.217.348.522t.131.628v11.214q0 .69-.462 1.152T17.385 21zM14 7.192V4H6.615q-.23 0-.423.192T6 4.615v14.77q0 .23.192.423t.423.192h10.77q.23 0 .423-.192t.192-.423V8h-3.192q-.348 0-.578-.23T14 7.192M6 4v4zv16z"/></svg>