<svg xmlns="http://www.w3.org/2000/svg" width="24" height="24" viewBox="0 0 24 24"><path fill="currentColor" d="M6.615 21q-.69 0-1.152-.462T5 19.385V4.615q0-.69.463-1.152T6.615 3h7.214q.323 0 .628.13t.522.349L18.52 7.02q.217.217.348.522t.131.628V14q0 .213-.143.357t-.357.143t-.357-.143T18 14V8h-3.192q-.348 0-.578-.23T14 7.192V4H6.615q-.23 0-.423.192T6 4.615v14.77q0 .23.192.423t.423.192H15q.213 0 .357.143t.143.357t-.143.357T15 21zM18.5 18.213v2.456q0 .214-.143.357t-.357.143t-.357-.143t-.143-.357v-3.361q0-.348.23-.578t.578-.23h3.361q.214 0 .357.143t.143.357t-.143.357t-.357.143h-2.48l3.115 3.115q.14.14.14.342t-.14.347q-.146.165-.357.156t-.357-.156zM6 20V4z"/></svg>