<svg xmlns="http://www.w3.org/2000/svg" width="24" height="24" viewBox="0 0 24 24"><path fill="currentColor" d="M13.579 20.852q-.22.061-.384-.082t-.164-.393q0-.177.122-.32t.299-.186q.875-.17 1.664-.493q.79-.324 1.455-.79q.152-.103.338-.085q.185.018.32.153q.177.177.158.386t-.206.345q-.794.557-1.694.911t-1.908.554m5.113-3.64q-.134-.135-.153-.318t.086-.348q.479-.684.796-1.471t.487-1.648q.042-.177.198-.302t.332-.125q.25 0 .384.167t.086.387q-.162.958-.538 1.857t-.953 1.739q-.134.183-.341.21t-.384-.148M20.413 11q-.176 0-.32-.125t-.185-.302q-.15-.88-.477-1.66t-.787-1.46q-.104-.165-.095-.347q.009-.183.143-.318q.177-.176.394-.142t.35.217q.616.899.947 1.707t.53 1.876q.043.22-.103.387t-.397.167m-9.925 9.865q-3.194-.607-5.3-3.096T3.08 12q0-3.306 2.104-5.8t5.298-3.071q.219-.042.383.091q.165.134.165.378q0 .177-.122.33t-.3.195Q7.78 4.658 5.93 6.871T4.08 12q0 2.896 1.85 5.091t4.679 2.78q.177.042.299.198t.122.333q0 .244-.162.375t-.38.088m6.138-15.41q-.748-.503-1.53-.843q-.784-.339-1.6-.489q-.178-.042-.303-.195t-.125-.33q0-.244.165-.378t.383-.091q.952.18 1.845.554q.892.373 1.725.93q.188.135.216.354t-.13.396q-.115.135-.295.166t-.351-.073m-4.59 10.232q-.162 0-.311-.052t-.255-.14q-1.342-1.236-2.004-2.302t-.661-1.979q0-1.423.926-2.367t2.305-.944t2.304.944t.926 2.367q0 .914-.661 1.98q-.662 1.065-2.004 2.301q-.125.106-.255.15t-.31.042m0-3.707q.373 0 .618-.245t.245-.619t-.245-.618t-.618-.245t-.619.245t-.245.618t.245.619t.619.245"/></svg>