<svg xmlns="http://www.w3.org/2000/svg" width="24" height="24" viewBox="0 0 24 24"><path fill="currentColor" d="M5.615 20q-.69 0-1.152-.462T4 18.385V5.615q0-.69.463-1.152T5.615 4h5.904q.214 0 .357.143t.143.357t-.143.357t-.357.143H5.615q-.23 0-.423.192T5 5.615v12.77q0 .23.192.423t.423.192h5.904q.214 0 .357.143t.143.357t-.143.357t-.357.143zm12.445-7.5H9.692q-.213 0-.356-.143T9.192 12t.144-.357t.356-.143h8.368l-1.972-1.971q-.14-.14-.15-.339t.15-.363t.354-.168t.36.162l2.613 2.614q.243.242.243.565t-.243.565l-2.613 2.614q-.146.146-.347.153t-.367-.159q-.16-.165-.156-.357t.162-.35z"/></svg>