<svg xmlns="http://www.w3.org/2000/svg" width="24" height="24" viewBox="0 0 24 24"><path fill="currentColor" d="M14.485 19.737L9 17.823l-3.902 1.509q-.21.083-.401.053t-.354-.132t-.252-.274Q4 18.806 4 18.583V6.41q0-.282.13-.499t.378-.303l3.957-1.345q.124-.05.257-.075T9 4.163t.278.025t.257.075L15 6.177l3.902-1.509q.21-.083.401-.053t.354.132t.252.274q.091.173.091.396v12.259q0 .284-.159.495t-.426.298l-3.9 1.287q-.13.05-.256.065q-.125.016-.26.016t-.26-.025t-.254-.075m.015-1.033v-11.7l-5-1.746v11.7z"/></svg>