<svg xmlns="http://www.w3.org/2000/svg" width="24" height="24" viewBox="0 0 24 24"><path fill="currentColor" d="M12.003 21q-1.866 0-3.51-.708q-1.643-.709-2.859-1.924t-1.925-2.856T3 12.003t.708-3.51t1.924-2.859t2.856-1.925T11.997 3t3.51.708t2.859 1.924t1.925 2.856t.709 3.509t-.708 3.51t-1.924 2.859t-2.856 1.925t-3.509.709M12 20q3.35 0 5.675-2.325T20 12t-2.325-5.675T12 4T6.325 6.325T4 12t2.325 5.675T12 20m-2.704-4.163l2.517-1.139q.087-.05.19-.05t.19.05l2.51 1.139q.274.13.491-.074q.218-.205.087-.478L12.41 8.3q-.118-.292-.413-.292t-.407.292l-2.87 6.985q-.132.273.086.478q.217.204.49.074"/></svg>