<svg xmlns="http://www.w3.org/2000/svg" width="24" height="24" viewBox="0 0 24 24"><path fill="currentColor" d="M9.423 19H5.615q-.69 0-1.152-.462T4 17.385V4.615q0-.69.463-1.152T5.615 3h12.77q.69 0 1.152.463T20 4.615v12.77q0 .69-.462 1.152T18.385 19h-3.808l-2.012 2.012q-.13.13-.267.183t-.298.053t-.298-.053t-.267-.183zM5 17.235q1.35-1.325 3.138-2.088T12 14.385t3.863.762T19 17.235V4.615q0-.23-.192-.423T18.385 4H5.615q-.23 0-.423.192T5 4.615zm7-5.158q1.258 0 2.129-.871T15 9.076t-.871-2.128T12 6.077t-2.129.871T9 9.077t.871 2.129t2.129.87M5.885 18h12.23v-.173q-1.319-1.24-2.873-1.841T12 15.385q-1.65 0-3.213.591t-2.902 1.812zM12 11.077q-.817 0-1.409-.591T10 9.076t.591-1.408T12 7.077t1.409.591T14 9.077t-.591 1.409t-1.409.59m0-.459"/></svg>