<svg xmlns="http://www.w3.org/2000/svg" width="24" height="24" viewBox="0 0 24 24"><path fill="currentColor" d="M12 19.677q2.82-2.454 4.458-4.991t1.638-4.39q0-2.744-1.737-4.53T12 3.981T7.641 5.766t-1.737 4.53q0 1.852 1.638 4.39q1.639 2.537 4.458 4.99m0 .88q-.235 0-.47-.077t-.432-.25q-1.067-.98-2.163-2.185q-1.097-1.204-1.992-2.493t-1.467-2.633t-.572-2.622q0-3.173 2.066-5.234T12 3t5.03 2.062t2.066 5.234q0 1.279-.572 2.613q-.572 1.333-1.458 2.632q-.885 1.3-1.981 2.494T12.92 20.21q-.191.173-.434.26t-.487.086m.003-8.825q.668 0 1.14-.476t.472-1.143t-.475-1.14t-1.143-.472t-1.14.476t-.472 1.143t.475 1.14t1.143.472"/></svg>