<svg xmlns="http://www.w3.org/2000/svg" width="24" height="24" viewBox="0 0 24 24"><path fill="currentColor" d="M11.5 20.95v-.961q-3.125-.293-5.16-2.328q-2.036-2.036-2.328-5.161H3.05q-.212 0-.356-.144t-.144-.357t.144-.356t.356-.143h.962q.292-3.125 2.328-5.16t5.16-2.328V3.05q0-.212.144-.356t.357-.144t.356.144t.143.356v.962q3.125.292 5.16 2.328t2.329 5.16h.961q.213 0 .356.144t.144.357t-.144.356t-.356.143h-.961q-.293 3.125-2.328 5.16q-2.036 2.036-5.161 2.329v.961q0 .213-.144.356t-.357.144t-.356-.144t-.143-.356M12 19q2.9 0 4.95-2.05T19 12t-2.05-4.95T12 5T7.05 7.05T5 12t2.05 4.95T12 19m0-4q-1.237 0-2.119-.881T9 12t.881-2.119T12 9t2.119.881T15 12t-.881 2.119T12 15m0-1q.825 0 1.413-.587T14 12t-.587-1.412T12 10t-1.412.588T10 12t.588 1.413T12 14m0-2"/></svg>