<svg xmlns="http://www.w3.org/2000/svg" width="24" height="24" viewBox="0 0 24 24"><path fill="currentColor" d="M10.96 21q-.348 0-.605-.229t-.318-.571l-.264-2.092q-.479-.145-1.035-.454t-.948-.664l-1.915.823q-.317.14-.644.031t-.504-.415L3.648 15.57q-.177-.306-.104-.638t.348-.546l1.671-1.25q-.044-.272-.073-.56t-.028-.558q0-.252.028-.53t.073-.626l-1.67-1.25q-.276-.213-.34-.555t.114-.648l1.06-1.8q.177-.287.504-.406t.644.021l1.896.804q.448-.373.97-.673t1.013-.464l.283-2.092q.061-.342.318-.571T10.96 3h2.08q.348 0 .605.229t.318.571l.264 2.112q.575.201 1.016.463t.909.654l1.992-.804q.318-.14.644-.021t.504.406l1.06 1.819q.177.306.104.638t-.348.546l-1.748 1.308q.082.31.092.568t.01.511q0 .233-.02.491q-.019.259-.088.626l1.69 1.27q.275.213.358.546q.083.332-.094.638l-1.066 1.839q-.177.305-.513.415q-.337.11-.654-.03l-1.923-.824q-.467.392-.94.673q-.474.281-.985.444l-.264 2.112q-.061.342-.318.571T13.04 21zm.04-1h1.956l.369-2.708q.756-.2 1.36-.549t1.232-.956l2.495 1.063l.994-1.7l-2.189-1.644q.125-.427.166-.786t.04-.72q0-.38-.04-.72t-.166-.747l2.227-1.683l-.994-1.7l-2.552 1.07q-.454-.499-1.193-.934t-1.4-.578L13 4h-1.994l-.312 2.688q-.756.162-1.39.52t-1.26.986L5.55 7.15l-.994 1.7l2.169 1.62q-.125.336-.175.73t-.05.82q0 .38.05.755t.156.73l-2.15 1.645l.994 1.7l2.475-1.05q.588.594 1.222.953t1.428.559zm.973-5.5q1.046 0 1.773-.727T14.473 12t-.727-1.773t-1.773-.727q-1.052 0-1.776.727T9.473 12t.724 1.773t1.776.727M12 12"/></svg>