<svg xmlns="http://www.w3.org/2000/svg" width="24" height="24" viewBox="0 0 24 24"><path fill="currentColor" d="M17.848 14.962q-1.183 1.638-2.503 3.011t-2.828 2.121q-.198.173-.442.26q-.244.086-.479.086t-.47-.077t-.432-.25q-1.067-.98-2.163-2.175t-1.992-2.493t-1.467-2.633T4.5 10.2q0-3.188 2.171-5.444T12 2.5q.817 0 1.622.155t1.54.528q.151.061.246.177t.094.292q0 .233-.153.388t-.386.156q-.082 0-.234-.075q-.617-.361-1.323-.491T12 3.5q-2.737 0-4.618 1.966T5.5 10.2q0 1.871 1.59 4.32T12 19.997q1.477-1.352 2.715-2.7q1.239-1.35 2.304-2.898q.08-.121.201-.213t.268-.09q.214 0 .36.145q.146.146.146.36q0 .104-.04.192t-.106.168m2.479-6.377q-3.421-.047-5.4.484q-1.977.531-3.639 2.175q1.185-2.386 3.716-3.132t5.273-.747l-2.63-2.63q-.141-.14-.132-.345t.15-.344t.345-.14t.344.14l3.37 3.389q.241.242.241.565t-.242.565l-3.388 3.389q-.14.14-.332.13t-.338-.15q-.14-.14-.14-.344t.14-.344z"/></svg>