<svg xmlns="http://www.w3.org/2000/svg" width="24" height="24" viewBox="0 0 24 24"><path fill="currentColor" d="M13.615 10.115q0-.666-.474-1.14Q12.666 8.5 12 8.5q-.154 0-.292.021t-.281.089l2.079 2.078q.067-.142.088-.28t.021-.293m3.97 4.652l-.739-.738q.606-1.05.928-1.991t.322-1.746q0-2.74-1.737-4.526T12 3.981q-1.114 0-2.089.347t-1.769.997l-.694-.694Q8.37 3.86 9.527 3.43T12 3q2.963 0 5.03 2.062q2.066 2.061 2.066 5.228q0 1.014-.373 2.132t-1.138 2.345m-2.502 1.737L6.388 7.81q-.223.569-.353 1.182t-.131 1.304q0 1.852 1.638 4.39q1.639 2.537 4.458 4.99q.88-.766 1.655-1.57q.774-.802 1.428-1.602M12 20.556q-.235 0-.47-.077t-.432-.25q-1.067-.98-2.163-2.185q-1.097-1.204-1.992-2.493t-1.467-2.633t-.572-2.614q0-.904.19-1.715T5.63 7.05L2.22 3.642q-.146-.14-.146-.335t.15-.359t.357-.165t.372.165l18.515 18.515q.146.147.153.345t-.159.363t-.356.166t-.357-.166l-4.979-4.979q-.425.489-.998 1.12T12.92 20.21q-.191.173-.434.26t-.487.086m.494-10.88"/></svg>