<svg xmlns="http://www.w3.org/2000/svg" width="24" height="24" viewBox="0 0 24 24"><path fill="currentColor" d="m10.562 14.492l-2.496-2.496q-.141-.14-.345-.15t-.363.15t-.16.354t.16.354l2.638 2.638q.242.243.565.243t.566-.243l5.477-5.476q.14-.141.15-.345t-.15-.363t-.354-.16t-.354.16zM12.003 21q-1.866 0-3.51-.708q-1.643-.709-2.859-1.924t-1.925-2.856T3 12.003t.709-3.51Q4.417 6.85 5.63 5.634t2.857-1.925T11.997 3t3.51.709q1.643.708 2.859 1.922t1.925 2.857t.709 3.509t-.708 3.51t-1.924 2.859t-2.856 1.925t-3.509.709M12 20q3.35 0 5.675-2.325T20 12t-2.325-5.675T12 4T6.325 6.325T4 12t2.325 5.675T12 20m0-8"/></svg>