<?xml version="1.0" ?>
<!-- Uploaded to: SVG Repo, www.svgrepo.com, Generator: SVG Repo Mixer Tools -->
<svg width="800px" height="800px" viewBox="0 0 24 24" version="1.1" xml:space="preserve" xmlns="http://www.w3.org/2000/svg" xmlns:xlink="http://www.w3.org/1999/xlink">
<style type="text/css">
	.st0{opacity:0.2;fill:none;stroke:#000000;stroke-width:5.000000e-02;stroke-miterlimit:10;}
</style>
<g id="Layer_1"/>
<g id="Layer_2">
<g>
<path d="M7.1,2.9c-0.4-0.4-1-0.4-1.4,0L5,3.6L4.3,2.9c-0.4-0.4-1-0.4-1.4,0s-0.4,1,0,1.4L3.6,5L2.9,5.7c-0.4,0.4-0.4,1,0,1.4    c0.2,0.2,0.5,0.3,0.7,0.3s0.5-0.1,0.7-0.3L5,6.4l0.7,0.7c0.2,0.2,0.5,0.3,0.7,0.3s0.5-0.1,0.7-0.3c0.4-0.4,0.4-1,0-1.4L6.4,5    l0.7-0.7C7.5,3.9,7.5,3.3,7.1,2.9z"/>
<path d="M7.1,9.9c-0.4-0.4-1-0.4-1.4,0L5,10.6L4.3,9.9c-0.4-0.4-1-0.4-1.4,0s-0.4,1,0,1.4L3.6,12l-0.7,0.7c-0.4,0.4-0.4,1,0,1.4    c0.2,0.2,0.5,0.3,0.7,0.3s0.5-0.1,0.7-0.3L5,13.4l0.7,0.7c0.2,0.2,0.5,0.3,0.7,0.3s0.5-0.1,0.7-0.3c0.4-0.4,0.4-1,0-1.4L6.4,12    l0.7-0.7C7.5,10.9,7.5,10.3,7.1,9.9z"/>
<path d="M7.1,16.9c-0.4-0.4-1-0.4-1.4,0L5,17.6l-0.7-0.7c-0.4-0.4-1-0.4-1.4,0s-0.4,1,0,1.4L3.6,19l-0.7,0.7c-0.4,0.4-0.4,1,0,1.4    c0.2,0.2,0.5,0.3,0.7,0.3s0.5-0.1,0.7-0.3L5,20.4l0.7,0.7c0.2,0.2,0.5,0.3,0.7,0.3s0.5-0.1,0.7-0.3c0.4-0.4,0.4-1,0-1.4L6.4,19    l0.7-0.7C7.5,17.9,7.5,17.3,7.1,16.9z"/>
<path d="M12,6h8c0.6,0,1-0.4,1-1s-0.4-1-1-1h-8c-0.6,0-1,0.4-1,1S11.4,6,12,6z"/>
<path d="M20,11h-8c-0.6,0-1,0.4-1,1s0.4,1,1,1h8c0.6,0,1-0.4,1-1S20.6,11,20,11z"/>
<path d="M20,18h-8c-0.6,0-1,0.4-1,1s0.4,1,1,1h8c0.6,0,1-0.4,1-1S20.6,18,20,18z"/>
</g>
</g>
</svg>