<?xml version="1.0" encoding="utf-8"?><!-- Uploaded to: SVG Repo, www.svgrepo.com, Generator: SVG Repo Mixer Tools -->
<svg width="800px" height="800px" viewBox="0 0 24 24" fill="none" xmlns="http://www.w3.org/2000/svg">
<path d="M16 3.98999H8C6.93913 3.98999 5.92178 4.41135 5.17163 5.1615C4.42149 5.91164 4 6.92912 4 7.98999V17.99C4 19.0509 4.42149 20.0682 5.17163 20.8184C5.92178 21.5685 6.93913 21.99 8 21.99H16C17.0609 21.99 18.0783 21.5685 18.8284 20.8184C19.5786 20.0682 20 19.0509 20 17.99V7.98999C20 6.92912 19.5786 5.91164 18.8284 5.1615C18.0783 4.41135 17.0609 3.98999 16 3.98999Z" stroke="#000000" stroke-width="1.5" stroke-linecap="round" stroke-linejoin="round"/>
<path d="M9 2V7" stroke="#000000" stroke-width="1.5" stroke-linecap="round" stroke-linejoin="round"/>
<path d="M15 2V7" stroke="#000000" stroke-width="1.5" stroke-linecap="round" stroke-linejoin="round"/>
<path d="M8 16H14" stroke="#000000" stroke-width="1.5" stroke-linecap="round" stroke-linejoin="round"/>
<path d="M8 12H16" stroke="#000000" stroke-width="1.5" stroke-linecap="round" stroke-linejoin="round"/>
</svg>